<svg xmlns="http://www.w3.org/2000/svg" width="259.078" height="69.503" viewBox="0 0 259.078 69.503">
  <path id="icon-logo" d="M2.065,46.974V-20.233H22.312V31.133H45.464V46.974ZM117.919,13.183A37.206,37.206,0,0,1,113.561,31.3a31.076,31.076,0,0,1-12.185,12.42,34.963,34.963,0,0,1-17.528,4.429,35,35,0,0,1-17.223-4.288A30.348,30.348,0,0,1,54.556,31.813a35.507,35.507,0,0,1-4.312-17.552A38.73,38.73,0,0,1,54.6-4.2,30.965,30.965,0,0,1,66.835-16.882a35.583,35.583,0,0,1,17.9-4.476,34.584,34.584,0,0,1,17.27,4.288A29.236,29.236,0,0,1,113.772-4.837,38.351,38.351,0,0,1,117.919,13.183Zm-21.465.562q0-8.3-3.187-13.076a9.956,9.956,0,0,0-8.717-4.78A11.023,11.023,0,0,0,75.13.482q-3.374,4.593-3.374,12.982,0,8.2,3.351,12.795a10.69,10.69,0,0,0,9.116,4.593,10.436,10.436,0,0,0,6.327-2.062,13.209,13.209,0,0,0,4.359-5.905A24.431,24.431,0,0,0,96.455,13.746ZM186.3,42.569a43.335,43.335,0,0,1-11.342,3.866,65.11,65.11,0,0,1-14.388,1.711q-17.669,0-27.276-8.834t-9.608-24.769a36.9,36.9,0,0,1,4.851-18.981A31.483,31.483,0,0,1,142.2-17.046q8.811-4.312,20.762-4.312a77.259,77.259,0,0,1,18.7,2.484V-1.2a39.758,39.758,0,0,0-8.9-2.929,49.459,49.459,0,0,0-9.326-.82q-8.342,0-13.287,5.015T145.2,13.839q0,8.389,4.148,13.123t11.6,4.734a25.112,25.112,0,0,0,5.108-.375V21.713H153.163V6.388H186.3Zm74.846-29.385A37.206,37.206,0,0,1,256.785,31.3,31.076,31.076,0,0,1,244.6,43.717a36.817,36.817,0,0,1-34.752.141A30.348,30.348,0,0,1,197.78,31.813a35.507,35.507,0,0,1-4.312-17.552A38.73,38.73,0,0,1,197.827-4.2a30.965,30.965,0,0,1,12.232-12.677,35.583,35.583,0,0,1,17.9-4.476,34.584,34.584,0,0,1,17.27,4.288A29.236,29.236,0,0,1,257-4.837,38.351,38.351,0,0,1,261.144,13.183Zm-21.465.562q0-8.3-3.187-13.076a9.956,9.956,0,0,0-8.717-4.78,11.023,11.023,0,0,0-9.42,4.593q-3.374,4.593-3.374,12.982,0,8.2,3.351,12.795a10.69,10.69,0,0,0,9.116,4.593,10.436,10.436,0,0,0,6.327-2.062,13.208,13.208,0,0,0,4.359-5.905A24.431,24.431,0,0,0,239.679,13.746Z" transform="translate(-2.065 21.357)" fill="#707070"/>
</svg>
